# xmcd
#
# Track frame offsets:
#	150
#	15632
#	29867
#	47904
#	63099
#	79789
#	99520
#	117258
#	132593
#	150650
#	166482
#	181528
#	197114
#	213297
#	230794
#
# Disc length: 3340 seconds
#
# Revision: 1
# Processed by: cddbd v1.5.2PL0 Copyright (c) Steve Scherf et al.
# Submitted via: audiograbber 1.83.01
#
DISCID=cc0d0a0f
DTITLE=Earl Thomas Conley - CB90111R
DYEAR=1900
DGENRE=Country
TTITLE0=Fire and Smoke
TTITLE1=Shadow Of A Doubt
TTITLE2=Bring Back Your Lovin To Me
TTITLE3=Your Love's On The Line
TTITLE4=Nobody Falls Like A Fool
TTITLE5=Somewhere Between Right And Wrong
TTITLE6=What She Is ( is a Woman In Love)
TTITLE7=Holding Her and Loving You
TTITLE8=Love Out Loud
TTITLE9=Angel In Disguise
TTITLE10=Chance Of Lovin' You
TTITLE11=Honor Bound
TTITLE12=Love Don't Care (Whose Heart is Broken)
TTITLE13=Once In A Blue Moon
TTITLE14=Love's The Only Voice
EXTD=
EXTT0=
EXTT1=
EXTT2=
EXTT3=
EXTT4=
EXTT5=
EXTT6=
EXTT7=
EXTT8=
EXTT9=
EXTT10=
EXTT11=
EXTT12=
EXTT13=
EXTT14=
PLAYORDER=
